<svg width="114" height="58" viewBox="0 0 114 58" fill="none" xmlns="http://www.w3.org/2000/svg">
<path d="M38.65 47.2303C39.73 47.2303 40.68 46.8503 41.5 46.0903C42.34 45.3303 42.76 44.4603 42.76 43.4803C42.76 42.4803 42.45 41.5603 41.83 40.7203C41.15 41.0603 40.48 41.2303 39.82 41.2303C38.28 41.2303 37.51 40.7503 37.51 39.7903C37.51 39.5103 37.7 39.2603 38.08 39.0403C38.46 38.8003 39 38.6803 39.7 38.6803C40.42 38.6803 41.2 38.8903 42.04 39.3103C42.84 38.4503 43.24 37.4803 43.24 36.4003C43.24 35.0603 42.65 34.0003 41.47 33.2203C40.31 32.4203 39.06 32.0203 37.72 32.0203C37.44 32.0203 37.23 32.0303 37.09 32.0503C37.07 32.6303 37.02 33.5603 36.94 34.8403C36.82 36.7603 36.76 39.6903 36.76 43.6303C36.76 45.1503 36.65 45.9103 36.43 45.9103C35.57 45.9103 35.02 45.7903 34.78 45.5503C34.54 45.3103 34.42 44.6203 34.42 43.4803C34.42 43.2003 34.47 42.0503 34.57 40.0303C34.69 38.0103 34.75 36.3803 34.75 35.1403C34.75 33.9003 34.79 32.9903 34.87 32.4103C33.81 32.7703 33.24 33.3503 33.16 34.1503C33.08 34.8103 32.93 35.2703 32.71 35.5303C32.51 35.7903 32.23 35.9203 31.87 35.9203C31.53 35.9203 31.3 35.8303 31.18 35.6503C31.06 35.4503 31 35.2503 31 35.0503C31 33.3103 32.35 32.1103 35.05 31.4503C35.39 30.0903 35.93 29.4103 36.67 29.4103C36.97 29.4103 37.12 29.9703 37.12 31.0903C37.64 31.0303 38.28 31.0003 39.04 31.0003C39.82 31.0003 40.71 31.1503 41.71 31.4503C42.71 31.7303 43.58 32.2403 44.32 32.9803C45.06 33.7003 45.43 34.5103 45.43 35.4103C45.43 37.0903 44.62 38.6003 43 39.9403C44.12 40.8203 44.68 41.8703 44.68 43.0903C44.68 44.3103 44.3 45.3203 43.54 46.1203C42.12 47.5803 40.22 48.3103 37.84 48.3103C36.22 48.3103 35.06 48.2003 34.36 47.9803C34.22 47.9403 34.07 47.8403 33.91 47.6803C33.77 47.5003 33.7 47.2803 33.7 47.0203C33.7 46.6003 34.11 46.3903 34.93 46.3903C35.19 46.3903 35.76 46.5303 36.64 46.8103C37.52 47.0903 38.19 47.2303 38.65 47.2303ZM41.2 40.0603C40.6 39.5603 40.03 39.3103 39.49 39.3103C38.97 39.3103 38.71 39.4203 38.71 39.6403C38.71 40.1003 39.2 40.3303 40.18 40.3303C40.54 40.3303 40.88 40.2403 41.2 40.0603ZM54.6058 48.1603C53.8258 48.1603 53.2358 48.0003 52.8358 47.6803C52.6958 47.5403 52.6258 47.1903 52.6258 46.6303C52.6258 46.0503 52.6458 45.2803 52.6858 44.3203C52.1658 45.6203 51.6458 46.5903 51.1258 47.2303C50.6258 47.8503 49.9758 48.1603 49.1758 48.1603C48.3758 48.1603 47.6758 47.7903 47.0758 47.0503C46.4758 46.2903 46.1758 45.1103 46.1758 43.5103C46.1758 41.8903 46.6258 40.4603 47.5258 39.2203C48.4458 37.9803 49.6458 37.3603 51.1258 37.3603C51.7658 37.3603 52.4858 37.7803 53.2858 38.6203C53.4458 38.4003 53.7258 38.1403 54.1258 37.8403C54.5458 37.5203 54.8958 37.3603 55.1758 37.3603C55.4758 37.3603 55.6258 37.7403 55.6258 38.5003C55.6258 38.7003 55.5658 39.0903 55.4458 39.6703C55.3458 40.2503 55.2258 40.6703 55.0858 40.9303C54.9058 41.3903 54.8158 43.0203 54.8158 45.8203C54.8158 46.3603 54.8758 46.6303 54.9958 46.6303C55.3358 46.6103 55.8058 46.1903 56.4058 45.3703C57.0058 44.5303 57.5958 43.4603 58.1758 42.1603C58.7758 40.8603 59.1358 40.2103 59.2558 40.2103C59.3958 40.2103 59.4658 40.2903 59.4658 40.4503C59.4658 41.0103 59.1758 41.9003 58.5958 43.1203C57.0158 46.4803 55.6858 48.1603 54.6058 48.1603ZM50.9458 38.5603C50.3858 38.5603 49.7858 38.9803 49.1458 39.8203C48.5258 40.6403 48.2158 41.6103 48.2158 42.7303C48.2158 43.8503 48.3758 44.7703 48.6958 45.4903C49.0358 46.2103 49.4758 46.5703 50.0158 46.5703C50.6758 46.5703 51.6458 44.9203 52.9258 41.6203C52.9458 41.4603 52.9658 41.1903 52.9858 40.8103C53.0258 40.4103 53.0558 40.1103 53.0758 39.9103C52.8958 39.5903 52.5758 39.2903 52.1158 39.0103C51.6758 38.7103 51.2858 38.5603 50.9458 38.5603ZM67.3202 49.0603L68.1302 48.9703C68.2902 48.9703 68.3702 49.0503 68.3702 49.2103C68.3702 49.4903 68.1802 49.7003 67.8002 49.8403C67.4202 49.9803 66.9902 50.0503 66.5102 50.0503C65.6102 50.0503 64.8502 49.6903 64.2302 48.9703C63.6302 48.2503 62.7902 46.9203 61.7102 44.9803C61.4502 44.5603 61.3202 44.2403 61.3202 44.0203C61.3202 43.7203 61.7402 43.3703 62.5802 42.9703C63.9402 42.2703 64.6202 41.3903 64.6202 40.3303C64.6202 40.0303 64.5102 39.7803 64.2902 39.5803C64.0902 39.3603 63.8202 39.2503 63.4802 39.2503C63.0002 39.2503 62.4302 39.8203 61.7702 40.9603C61.1102 42.0803 60.6602 43.1403 60.4202 44.1403C60.2002 45.1203 60.0902 46.1803 60.0902 47.3203C60.0902 47.8803 59.9302 48.1603 59.6102 48.1603C59.1502 48.1603 58.7102 48.1003 58.2902 47.9803C57.8702 47.8403 57.6602 47.6703 57.6602 47.4703C57.6602 47.2503 57.7402 46.3003 57.9002 44.6203C58.0602 42.9203 58.1502 41.7003 58.1702 40.9603C58.2502 36.8803 58.4902 33.7603 58.8902 31.6003C58.9502 31.4203 59.2202 31.1103 59.7002 30.6703C60.2002 30.2303 60.6002 30.0103 60.9002 30.0103C61.2002 30.0103 61.3402 30.3903 61.3202 31.1503C61.3202 31.8903 61.1602 33.4903 60.8402 35.9503C60.5202 38.4103 60.3202 40.6603 60.2402 42.7003C60.6002 41.4203 61.1702 40.2103 61.9502 39.0703C62.7502 37.9303 63.5502 37.3603 64.3502 37.3603C65.7102 37.3603 66.3902 38.0203 66.3902 39.3403C66.3902 40.2203 66.1302 41.0203 65.6102 41.7403C65.0902 42.4403 64.3902 43.0103 63.5102 43.4503C63.3302 43.5303 63.2402 43.6203 63.2402 43.7203C63.2402 43.8203 63.2702 43.9203 63.3302 44.0203C64.5902 46.2403 65.6602 47.8003 66.5402 48.7003C66.7802 48.9403 67.0402 49.0603 67.3202 49.0603ZM71.6034 48.1603C70.4834 48.1603 69.5934 47.7403 68.9334 46.9003C68.2734 46.0403 67.9434 45.0703 67.9434 43.9903C67.9434 41.8103 68.4034 40.1603 69.3234 39.0403C70.2434 37.9203 71.4334 37.3603 72.8934 37.3603C73.5734 37.3603 74.1334 37.5503 74.5734 37.9303C75.0134 38.2903 75.2334 38.7903 75.2334 39.4303C75.2334 40.6303 74.7234 41.6403 73.7034 42.4603C72.7034 43.2603 71.4734 43.6803 70.0134 43.7203C70.0934 44.5003 70.3534 45.1803 70.7934 45.7603C71.2534 46.3203 71.7834 46.6003 72.3834 46.6003C72.9834 46.6003 73.5234 46.4603 74.0034 46.1803C74.4834 45.9003 74.9234 45.5003 75.3234 44.9803C76.1634 43.8803 76.8834 42.6303 77.4834 41.2303C77.6434 40.8703 77.7634 40.6103 77.8434 40.4503C77.9434 40.2903 78.0434 40.2103 78.1434 40.2103C78.2634 40.2103 78.3234 40.2903 78.3234 40.4503C78.3234 41.4503 77.7134 42.9503 76.4934 44.9503C75.1734 47.0903 73.5434 48.1603 71.6034 48.1603ZM70.0134 43.0003C71.1934 42.8003 72.0534 42.4203 72.5934 41.8603C73.1534 41.3003 73.4334 40.5703 73.4334 39.6703C73.4334 38.7703 73.1434 38.3203 72.5634 38.3203C71.8634 38.3203 71.2734 38.8103 70.7934 39.7903C70.3134 40.7503 70.0534 41.8203 70.0134 43.0003ZM79.3424 40.1803L80.9924 40.0003C81.1524 40.0003 81.2924 40.0903 81.4124 40.2703C81.5324 40.4503 81.5924 40.6403 81.5924 40.8403C81.5924 41.0403 81.5224 41.7203 81.3824 42.8803C81.2624 44.0403 81.2024 44.9603 81.2024 45.6403C81.2024 46.3003 81.2624 46.6303 81.3824 46.6303C81.7224 46.6103 82.1924 46.1903 82.7924 45.3703C83.3924 44.5303 83.9824 43.4603 84.5624 42.1603C85.1624 40.8603 85.5224 40.2103 85.6424 40.2103C85.7824 40.2103 85.8524 40.2903 85.8524 40.4503C85.8524 41.0103 85.5624 41.9003 84.9824 43.1203C83.4024 46.4803 82.0724 48.1603 80.9924 48.1603C80.2124 48.1603 79.6224 48.0003 79.2224 47.6803C79.0824 47.5403 79.0124 46.6703 79.0124 45.0703C79.0124 43.4703 79.1824 42.1003 79.5224 40.9603C78.3624 40.9603 77.5524 40.5903 77.0924 39.8503C76.8524 39.4703 76.7324 39.0403 76.7324 38.5603C76.7324 38.0803 76.8324 37.6603 77.0324 37.3003C77.2324 36.9403 77.5124 36.7603 77.8724 36.7603C78.2524 36.7603 78.5924 36.9603 78.8924 37.3603C79.2124 37.7403 79.3724 38.1703 79.3724 38.6503C79.3724 39.1303 79.2324 39.6103 78.9524 40.0903C79.0324 40.1503 79.1624 40.1803 79.3424 40.1803ZM86.5689 48.1603C86.1289 48.1603 85.7189 48.1103 85.3389 48.0103C84.9789 47.8903 84.7589 47.7803 84.6789 47.6803C84.4789 47.4403 84.3789 46.2003 84.3789 43.9603C84.3789 41.7003 84.6289 38.6403 85.1289 34.7803C85.5489 31.6003 86.5289 30.0103 88.0689 30.0103C88.4289 30.0103 88.6889 30.2103 88.8489 30.6103C89.0089 30.9903 89.0889 31.3603 89.0889 31.7203C89.0889 34.3203 88.2989 37.2303 86.7189 40.4503C86.6589 42.1103 86.6289 43.5603 86.6289 44.8003C86.6289 46.0203 86.7389 46.6303 86.9589 46.6303C87.2989 46.6103 87.7689 46.1903 88.3689 45.3703C88.9689 44.5303 89.5589 43.4603 90.1389 42.1603C90.7389 40.8603 91.0989 40.2103 91.2189 40.2103C91.3589 40.2103 91.4289 40.2903 91.4289 40.4503C91.4289 41.0103 91.1389 41.9003 90.5589 43.1203C88.9789 46.4803 87.6489 48.1603 86.5689 48.1603ZM88.3389 31.9903C88.3389 31.3503 88.2589 31.0303 88.0989 31.0303C87.4989 31.0303 87.0589 33.5203 86.7789 38.5003C87.8189 35.7603 88.3389 33.5903 88.3389 31.9903ZM98.053 48.1603C97.273 48.1603 96.683 48.0003 96.283 47.6803C96.143 47.5403 96.073 47.1903 96.073 46.6303C96.073 46.0503 96.093 45.2803 96.133 44.3203C95.613 45.6203 95.093 46.5903 94.573 47.2303C94.073 47.8503 93.423 48.1603 92.623 48.1603C91.823 48.1603 91.123 47.7903 90.523 47.0503C89.923 46.2903 89.623 45.1103 89.623 43.5103C89.623 41.8903 90.073 40.4603 90.973 39.2203C91.893 37.9803 93.093 37.3603 94.573 37.3603C95.213 37.3603 95.933 37.7803 96.733 38.6203C96.893 38.4003 97.173 38.1403 97.573 37.8403C97.993 37.5203 98.343 37.3603 98.623 37.3603C98.923 37.3603 99.073 37.7403 99.073 38.5003C99.073 38.7003 99.013 39.0903 98.893 39.6703C98.793 40.2503 98.673 40.6703 98.533 40.9303C98.353 41.3903 98.263 43.0203 98.263 45.8203C98.263 46.3603 98.323 46.6303 98.443 46.6303C98.783 46.6103 99.253 46.1903 99.853 45.3703C100.453 44.5303 101.043 43.4603 101.623 42.1603C102.223 40.8603 102.583 40.2103 102.703 40.2103C102.843 40.2103 102.913 40.2903 102.913 40.4503C102.913 41.0103 102.623 41.9003 102.043 43.1203C100.463 46.4803 99.133 48.1603 98.053 48.1603ZM94.393 38.5603C93.833 38.5603 93.233 38.9803 92.593 39.8203C91.973 40.6403 91.663 41.6103 91.663 42.7303C91.663 43.8503 91.823 44.7703 92.143 45.4903C92.483 46.2103 92.923 46.5703 93.463 46.5703C94.123 46.5703 95.093 44.9203 96.373 41.6203C96.393 41.4603 96.413 41.1903 96.433 40.8103C96.473 40.4103 96.503 40.1103 96.523 39.9103C96.343 39.5903 96.023 39.2903 95.563 39.0103C95.123 38.7103 94.733 38.5603 94.393 38.5603ZM106.717 37.6603C107.637 37.6603 108.397 38.0003 108.997 38.6803C109.597 39.3403 109.907 40.2703 109.927 41.4703C110.747 41.2303 111.467 40.9403 112.087 40.6003C112.727 40.2603 113.067 40.0903 113.107 40.0903C113.227 40.0903 113.287 40.1903 113.287 40.3903C113.287 40.5903 112.997 40.9003 112.417 41.3203C111.857 41.7403 111.007 42.1603 109.867 42.5803C109.627 44.3603 108.907 45.7403 107.707 46.7203C106.507 47.6803 105.307 48.1603 104.107 48.1603C102.907 48.1603 102.107 47.7203 101.707 46.8403C101.307 45.9403 101.107 44.5303 101.107 42.6103C101.107 40.6903 101.247 38.8703 101.527 37.1503C101.807 35.4303 102.167 34.0803 102.607 33.1003C103.047 32.1003 103.497 31.3403 103.957 30.8203C104.437 30.2803 104.887 30.0103 105.307 30.0103C105.507 30.0103 105.687 30.2503 105.847 30.7303C106.027 31.2103 106.117 31.8003 106.117 32.5003C106.117 34.0403 105.837 35.8403 105.277 37.9003C105.657 37.7403 106.137 37.6603 106.717 37.6603ZM108.067 43.0603C107.907 43.0803 107.567 43.0903 107.047 43.0903C106.547 43.0903 105.987 42.9203 105.367 42.5803C104.767 42.2203 104.357 41.7303 104.137 41.1103C103.937 41.6103 103.707 42.0903 103.447 42.5503C103.487 44.0703 103.607 45.1603 103.807 45.8203C104.007 46.4803 104.327 46.8103 104.767 46.8103C105.467 46.8103 106.147 46.5203 106.807 45.9403C107.487 45.3403 107.907 44.3803 108.067 43.0603ZM105.397 33.0403C105.397 32.2003 105.287 31.7803 105.067 31.7803C104.887 31.7803 104.667 32.2203 104.407 33.1003C104.167 33.9603 103.937 35.1403 103.717 36.6403C103.517 38.1203 103.417 39.5903 103.417 41.0503C104.737 37.3103 105.397 34.6403 105.397 33.0403ZM106.237 38.7403C105.957 38.7403 105.727 38.8303 105.547 39.0103C105.387 39.1703 105.307 39.3903 105.307 39.6703C105.307 40.2903 105.577 40.8103 106.117 41.2303C106.677 41.6303 107.347 41.8303 108.127 41.8303C108.107 41.0103 107.947 40.2903 107.647 39.6703C107.347 39.0503 106.877 38.7403 106.237 38.7403Z" fill="#412D22"/>
<path d="M0 20.5086C0 9.18203 9.17819 0 20.5 0C31.8217 0 40.9999 9.18203 41 20.5086C41 21.1091 40.9607 21.6999 40.9102 22.2875C40.1492 21.9685 39.3143 21.7904 38.4375 21.7904C36.6365 21.7904 35.0153 22.5389 33.8513 23.7358C32.9011 23.3153 31.8558 23.0722 30.75 23.0722C26.5043 23.0722 23.0625 26.5154 23.0625 30.7629C23.0625 31.8691 23.3056 32.915 23.7258 33.8655C22.5295 35.0299 21.7813 36.6519 21.7813 38.4536C21.7813 39.3307 21.9594 40.166 22.2783 40.9273C21.691 40.9779 21.1003 41.0172 20.5 41.0172C9.17819 41.0172 0 31.8351 0 20.5086Z" fill="#412D22"/>
<path d="M20.5 0C9.17819 0 0 9.18203 0 20.5086C0 31.8351 9.17819 41.0172 20.5 41.0172C21.1003 41.0172 21.691 40.9779 22.2783 40.9273C21.9594 40.166 21.7813 39.3307 21.7813 38.4536C21.7813 36.6519 22.5295 35.0299 23.7258 33.8655C23.3056 32.915 23.0625 31.8691 23.0625 30.7629C23.0625 26.5154 26.5043 23.0722 30.75 23.0722C31.8558 23.0722 32.9011 23.3153 33.8513 23.7358C35.0153 22.5389 36.6365 21.7904 38.4375 21.7904C39.3143 21.7904 40.1492 21.9685 40.9102 22.2875C40.9607 21.6999 41 21.1091 41 20.5086C40.9999 9.18203 31.8217 0 20.5 0ZM6.40626 20.5086C5.69872 20.5086 5.12504 19.9347 5.12504 19.2268C5.12504 18.5188 5.69872 17.9451 6.40626 17.9451C7.1138 17.9451 7.68748 18.5188 7.68748 19.2268C7.68748 19.9347 7.1138 20.5086 6.40626 20.5086ZM12.8124 30.7628C11.3971 30.7628 10.2499 29.6149 10.2499 28.1992C10.2499 26.7833 11.3971 25.6356 12.8124 25.6356C14.2277 25.6356 15.375 26.7833 15.375 28.1992C15.375 29.6149 14.2277 30.7628 12.8124 30.7628ZM15.375 12.8178C13.9597 12.8178 12.8124 11.67 12.8124 10.2542C12.8124 8.83832 13.9597 7.69062 15.375 7.69062C16.7903 7.69062 17.9375 8.83832 17.9375 10.2542C17.9375 11.67 16.7903 12.8178 15.375 12.8178ZM19.2187 23.0721C18.5112 23.0721 17.9375 22.4982 17.9375 21.7903C17.9375 21.0824 18.5112 20.5086 19.2187 20.5086C19.9262 20.5086 20.4999 21.0824 20.4999 21.7903C20.5 22.4982 19.9263 23.0721 19.2187 23.0721ZM26.9062 5.12711C27.6137 5.12711 28.1874 5.70088 28.1874 6.40887C28.1874 7.1167 27.6137 7.69062 26.9062 7.69062C26.1986 7.69062 25.625 7.1167 25.625 6.40887C25.625 5.70088 26.1986 5.12711 26.9062 5.12711ZM28.1875 17.945C26.7722 17.945 25.625 16.7971 25.625 15.3814C25.625 13.9655 26.7722 12.8178 28.1875 12.8178C29.6028 12.8178 30.75 13.9655 30.75 15.3814C30.7499 16.7971 29.6027 17.945 28.1875 17.945Z" fill="#E39A3B"/>
</svg>
